<svg role="img" width="20" height="20" viewBox="0 0 20 20" fill="none" stroke-width="1" stroke="#000" xmlns="http://www.w3.org/2000/svg"><g><title></title><path d="M10.7464 16.2175L10.7447 16.2189C10.3275 16.5947 9.68259 16.5945 9.26547 16.2134L9.26306 16.2112L9.17509 16.1319L9.17421 16.1311C7.06448 14.2374 5.36336 12.7074 4.19609 11.272C3.036 9.84539 2.45648 8.5751 2.50256 7.2067C2.54515 6.01343 3.16266 4.86986 4.154 4.20026L4.15427 4.20008C6.02508 2.93466 8.35405 3.51385 9.62092 4.98488L9.99978 5.42481L10.3786 4.98488C11.6465 3.51266 13.975 2.92796 15.8442 4.19936L15.8456 4.20026C16.837 4.86994 17.4546 6.01371 17.497 7.20713L17.497 7.20753C17.5468 8.57519 16.9678 9.84507 15.8064 11.2741C14.6416 12.7071 12.9456 14.2358 10.8448 16.1294L10.8263 16.1461L10.8246 16.1476L10.7464 16.2175Z"></path></g></svg>